<svg id="visual" viewBox="0 0 960 540" width="960" height="540" xmlns="http://www.w3.org/2000/svg" xmlns:xlink="http://www.w3.org/1999/xlink" version="1.1"><rect x="0" y="0" width="960" height="540" fill="#001220"></rect><defs><linearGradient id="grad1_0" x1="43.8%" y1="0%" x2="100%" y2="100%"><stop offset="14.444444444444446%" stop-color="#00a68d" stop-opacity="1"></stop><stop offset="85.55555555555554%" stop-color="#00a68d" stop-opacity="1"></stop></linearGradient></defs><defs><linearGradient id="grad1_1" x1="43.8%" y1="0%" x2="100%" y2="100%"><stop offset="14.444444444444446%" stop-color="#00a68d" stop-opacity="1"></stop><stop offset="85.55555555555554%" stop-color="#008f87" stop-opacity="1"></stop></linearGradient></defs><defs><linearGradient id="grad1_2" x1="43.8%" y1="0%" x2="100%" y2="100%"><stop offset="14.444444444444446%" stop-color="#00797d" stop-opacity="1"></stop><stop offset="85.55555555555554%" stop-color="#008f87" stop-opacity="1"></stop></linearGradient></defs><defs><linearGradient id="grad1_3" x1="43.8%" y1="0%" x2="100%" y2="100%"><stop offset="14.444444444444446%" stop-color="#00797d" stop-opacity="1"></stop><stop offset="85.55555555555554%" stop-color="#006270" stop-opacity="1"></stop></linearGradient></defs><defs><linearGradient id="grad1_4" x1="43.8%" y1="0%" x2="100%" y2="100%"><stop offset="14.444444444444446%" stop-color="#004c5f" stop-opacity="1"></stop><stop offset="85.55555555555554%" stop-color="#006270" stop-opacity="1"></stop></linearGradient></defs><defs><linearGradient id="grad1_5" x1="43.8%" y1="0%" x2="100%" y2="100%"><stop offset="14.444444444444446%" stop-color="#004c5f" stop-opacity="1"></stop><stop offset="85.55555555555554%" stop-color="#00384b" stop-opacity="1"></stop></linearGradient></defs><defs><linearGradient id="grad1_6" x1="43.8%" y1="0%" x2="100%" y2="100%"><stop offset="14.444444444444446%" stop-color="#002436" stop-opacity="1"></stop><stop offset="85.55555555555554%" stop-color="#00384b" stop-opacity="1"></stop></linearGradient></defs><defs><linearGradient id="grad1_7" x1="43.8%" y1="0%" x2="100%" y2="100%"><stop offset="14.444444444444446%" stop-color="#002436" stop-opacity="1"></stop><stop offset="85.55555555555554%" stop-color="#001220" stop-opacity="1"></stop></linearGradient></defs><defs><linearGradient id="grad2_0" x1="0%" y1="0%" x2="56.3%" y2="100%"><stop offset="14.444444444444446%" stop-color="#00a68d" stop-opacity="1"></stop><stop offset="85.55555555555554%" stop-color="#00a68d" stop-opacity="1"></stop></linearGradient></defs><defs><linearGradient id="grad2_1" x1="0%" y1="0%" x2="56.3%" y2="100%"><stop offset="14.444444444444446%" stop-color="#008f87" stop-opacity="1"></stop><stop offset="85.55555555555554%" stop-color="#00a68d" stop-opacity="1"></stop></linearGradient></defs><defs><linearGradient id="grad2_2" x1="0%" y1="0%" x2="56.3%" y2="100%"><stop offset="14.444444444444446%" stop-color="#008f87" stop-opacity="1"></stop><stop offset="85.55555555555554%" stop-color="#00797d" stop-opacity="1"></stop></linearGradient></defs><defs><linearGradient id="grad2_3" x1="0%" y1="0%" x2="56.3%" y2="100%"><stop offset="14.444444444444446%" stop-color="#006270" stop-opacity="1"></stop><stop offset="85.55555555555554%" stop-color="#00797d" stop-opacity="1"></stop></linearGradient></defs><defs><linearGradient id="grad2_4" x1="0%" y1="0%" x2="56.3%" y2="100%"><stop offset="14.444444444444446%" stop-color="#006270" stop-opacity="1"></stop><stop offset="85.55555555555554%" stop-color="#004c5f" stop-opacity="1"></stop></linearGradient></defs><defs><linearGradient id="grad2_5" x1="0%" y1="0%" x2="56.3%" y2="100%"><stop offset="14.444444444444446%" stop-color="#00384b" stop-opacity="1"></stop><stop offset="85.55555555555554%" stop-color="#004c5f" stop-opacity="1"></stop></linearGradient></defs><defs><linearGradient id="grad2_6" x1="0%" y1="0%" x2="56.3%" y2="100%"><stop offset="14.444444444444446%" stop-color="#00384b" stop-opacity="1"></stop><stop offset="85.55555555555554%" stop-color="#002436" stop-opacity="1"></stop></linearGradient></defs><defs><linearGradient id="grad2_7" x1="0%" y1="0%" x2="56.3%" y2="100%"><stop offset="14.444444444444446%" stop-color="#001220" stop-opacity="1"></stop><stop offset="85.55555555555554%" stop-color="#002436" stop-opacity="1"></stop></linearGradient></defs><g transform="translate(960, 0)"><path d="M0 405C-39.8 372.1 -79.6 339.2 -135.1 326.1C-190.6 313.1 -261.7 319.8 -286.4 286.4C-311 252.9 -289.2 179.2 -301.2 124.8C-313.2 70.3 -359.1 35.2 -405 0L0 0Z" fill="#021b2b"></path><path d="M0 354.4C-34.8 325.6 -69.7 296.8 -118.2 285.4C-166.7 273.9 -229 279.9 -250.6 250.6C-272.1 221.3 -253 156.8 -263.5 109.2C-274.1 61.5 -314.2 30.8 -354.4 0L0 0Z" fill="#002e41"></path><path d="M0 303.8C-29.9 279.1 -59.7 254.4 -101.3 244.6C-142.9 234.8 -196.3 239.9 -214.8 214.8C-233.3 189.7 -216.9 134.4 -225.9 93.6C-234.9 52.7 -269.3 26.4 -303.7 0L0 0Z" fill="#004255"></path><path d="M0 253.1C-24.9 232.6 -49.8 212 -84.4 203.8C-119.1 195.7 -163.6 199.9 -179 179C-194.4 158.1 -180.7 112 -188.2 78C-195.8 43.9 -224.4 22 -253.1 0L0 0Z" fill="#005768"></path><path d="M0 202.5C-19.9 186 -39.8 169.6 -67.5 163.1C-95.3 156.5 -130.9 159.9 -143.2 143.2C-155.5 126.5 -144.6 89.6 -150.6 62.4C-156.6 35.2 -179.6 17.6 -202.5 0L0 0Z" fill="#006d77"></path><path d="M0 151.9C-14.9 139.5 -29.9 127.2 -50.7 122.3C-71.5 117.4 -98.1 119.9 -107.4 107.4C-116.6 94.8 -108.4 67.2 -112.9 46.8C-117.5 26.4 -134.7 13.2 -151.9 0L0 0Z" fill="#008483"></path><path d="M0 101.3C-10 93 -19.9 84.8 -33.8 81.5C-47.6 78.3 -65.4 80 -71.6 71.6C-77.8 63.2 -72.3 44.8 -75.3 31.2C-78.3 17.6 -89.8 8.8 -101.2 0L0 0Z" fill="#009b8b"></path><path d="M0 50.6C-5 46.5 -10 42.4 -16.9 40.8C-23.8 39.1 -32.7 40 -35.8 35.8C-38.9 31.6 -36.1 22.4 -37.6 15.6C-39.2 8.8 -44.9 4.4 -50.6 0L0 0Z" fill="#00a68d"></path></g><g transform="translate(0, 540)"><path d="M0 -405C46.9 -388.1 93.7 -371.3 147.3 -355.7C201 -340.1 261.3 -325.8 286.4 -286.4C311.4 -247 301.2 -182.4 315 -130.5C328.9 -78.6 367 -39.3 405 0L0 0Z" fill="#021b2b"></path><path d="M0 -354.4C41 -339.6 82 -324.9 128.9 -311.2C175.8 -297.6 228.7 -285.1 250.6 -250.6C272.5 -216.1 263.5 -159.6 275.7 -114.2C287.8 -68.8 321.1 -34.4 354.4 0L0 0Z" fill="#002e41"></path><path d="M0 -303.7C35.1 -291.1 70.3 -278.5 110.5 -266.8C150.7 -255.1 196 -244.4 214.8 -214.8C233.6 -185.2 225.9 -136.8 236.3 -97.9C246.7 -58.9 275.2 -29.5 303.8 0L0 0Z" fill="#004255"></path><path d="M0 -253.1C29.3 -242.6 58.6 -232 92.1 -222.3C125.6 -212.6 163.3 -203.6 179 -179C194.6 -154.3 188.2 -114 196.9 -81.6C205.6 -49.1 229.4 -24.6 253.1 0L0 0Z" fill="#005768"></path><path d="M0 -202.5C23.4 -194.1 46.9 -185.6 73.7 -177.8C100.5 -170.1 130.7 -162.9 143.2 -143.2C155.7 -123.5 150.6 -91.2 157.5 -65.2C164.5 -39.3 183.5 -19.6 202.5 0L0 0Z" fill="#006d77"></path><path d="M0 -151.9C17.6 -145.6 35.1 -139.2 55.2 -133.4C75.4 -127.5 98 -122.2 107.4 -107.4C116.8 -92.6 112.9 -68.4 118.1 -48.9C123.3 -29.5 137.6 -14.7 151.9 0L0 0Z" fill="#008483"></path><path d="M0 -101.2C11.7 -97 23.4 -92.8 36.8 -88.9C50.2 -85 65.3 -81.5 71.6 -71.6C77.9 -61.7 75.3 -45.6 78.8 -32.6C82.2 -19.6 91.7 -9.8 101.3 0L0 0Z" fill="#009b8b"></path><path d="M0 -50.6C5.9 -48.5 11.7 -46.4 18.4 -44.5C25.1 -42.5 32.7 -40.7 35.8 -35.8C38.9 -30.9 37.6 -22.8 39.4 -16.3C41.1 -9.8 45.9 -4.9 50.6 0L0 0Z" fill="#00a68d"></path></g></svg>