<svg id="visual" viewBox="0 0 960 540" width="960" height="540" xmlns="http://www.w3.org/2000/svg" xmlns:xlink="http://www.w3.org/1999/xlink" version="1.1"><rect x="0" y="0" width="960" height="540" fill="#001220"></rect><defs><linearGradient id="grad1_0" x1="43.8%" y1="0%" x2="100%" y2="100%"><stop offset="14.444444444444446%" stop-color="#00b398" stop-opacity="1"></stop><stop offset="85.55555555555554%" stop-color="#00b398" stop-opacity="1"></stop></linearGradient></defs><defs><linearGradient id="grad1_1" x1="43.8%" y1="0%" x2="100%" y2="100%"><stop offset="14.444444444444446%" stop-color="#00b398" stop-opacity="1"></stop><stop offset="85.55555555555554%" stop-color="#009a91" stop-opacity="1"></stop></linearGradient></defs><defs><linearGradient id="grad1_2" x1="43.8%" y1="0%" x2="100%" y2="100%"><stop offset="14.444444444444446%" stop-color="#008186" stop-opacity="1"></stop><stop offset="85.55555555555554%" stop-color="#009a91" stop-opacity="1"></stop></linearGradient></defs><defs><linearGradient id="grad1_3" x1="43.8%" y1="0%" x2="100%" y2="100%"><stop offset="14.444444444444446%" stop-color="#008186" stop-opacity="1"></stop><stop offset="85.55555555555554%" stop-color="#006977" stop-opacity="1"></stop></linearGradient></defs><defs><linearGradient id="grad1_4" x1="43.8%" y1="0%" x2="100%" y2="100%"><stop offset="14.444444444444446%" stop-color="#005165" stop-opacity="1"></stop><stop offset="85.55555555555554%" stop-color="#006977" stop-opacity="1"></stop></linearGradient></defs><defs><linearGradient id="grad1_5" x1="43.8%" y1="0%" x2="100%" y2="100%"><stop offset="14.444444444444446%" stop-color="#005165" stop-opacity="1"></stop><stop offset="85.55555555555554%" stop-color="#003b4f" stop-opacity="1"></stop></linearGradient></defs><defs><linearGradient id="grad1_6" x1="43.8%" y1="0%" x2="100%" y2="100%"><stop offset="14.444444444444446%" stop-color="#002638" stop-opacity="1"></stop><stop offset="85.55555555555554%" stop-color="#003b4f" stop-opacity="1"></stop></linearGradient></defs><defs><linearGradient id="grad1_7" x1="43.8%" y1="0%" x2="100%" y2="100%"><stop offset="14.444444444444446%" stop-color="#002638" stop-opacity="1"></stop><stop offset="85.55555555555554%" stop-color="#001220" stop-opacity="1"></stop></linearGradient></defs><defs><linearGradient id="grad2_0" x1="0%" y1="0%" x2="56.3%" y2="100%"><stop offset="14.444444444444446%" stop-color="#00b398" stop-opacity="1"></stop><stop offset="85.55555555555554%" stop-color="#00b398" stop-opacity="1"></stop></linearGradient></defs><defs><linearGradient id="grad2_1" x1="0%" y1="0%" x2="56.3%" y2="100%"><stop offset="14.444444444444446%" stop-color="#009a91" stop-opacity="1"></stop><stop offset="85.55555555555554%" stop-color="#00b398" stop-opacity="1"></stop></linearGradient></defs><defs><linearGradient id="grad2_2" x1="0%" y1="0%" x2="56.3%" y2="100%"><stop offset="14.444444444444446%" stop-color="#009a91" stop-opacity="1"></stop><stop offset="85.55555555555554%" stop-color="#008186" stop-opacity="1"></stop></linearGradient></defs><defs><linearGradient id="grad2_3" x1="0%" y1="0%" x2="56.3%" y2="100%"><stop offset="14.444444444444446%" stop-color="#006977" stop-opacity="1"></stop><stop offset="85.55555555555554%" stop-color="#008186" stop-opacity="1"></stop></linearGradient></defs><defs><linearGradient id="grad2_4" x1="0%" y1="0%" x2="56.3%" y2="100%"><stop offset="14.444444444444446%" stop-color="#006977" stop-opacity="1"></stop><stop offset="85.55555555555554%" stop-color="#005165" stop-opacity="1"></stop></linearGradient></defs><defs><linearGradient id="grad2_5" x1="0%" y1="0%" x2="56.3%" y2="100%"><stop offset="14.444444444444446%" stop-color="#003b4f" stop-opacity="1"></stop><stop offset="85.55555555555554%" stop-color="#005165" stop-opacity="1"></stop></linearGradient></defs><defs><linearGradient id="grad2_6" x1="0%" y1="0%" x2="56.3%" y2="100%"><stop offset="14.444444444444446%" stop-color="#003b4f" stop-opacity="1"></stop><stop offset="85.55555555555554%" stop-color="#002638" stop-opacity="1"></stop></linearGradient></defs><defs><linearGradient id="grad2_7" x1="0%" y1="0%" x2="56.3%" y2="100%"><stop offset="14.444444444444446%" stop-color="#001220" stop-opacity="1"></stop><stop offset="85.55555555555554%" stop-color="#002638" stop-opacity="1"></stop></linearGradient></defs><g transform="translate(960, 0)"><path d="M0 297C-35.3 283.1 -70.6 269.3 -106 255.9C-141.4 242.5 -176.8 229.7 -206.5 206.5C-236.2 183.3 -260.2 149.8 -274.4 113.7C-288.5 77.5 -292.8 38.8 -297 0L0 0Z" fill="#021c2c"></path><path d="M0 259.9C-30.9 247.7 -61.8 235.6 -92.8 223.9C-123.7 212.2 -154.7 201 -180.7 180.7C-206.7 160.4 -227.7 131.1 -240.1 99.4C-252.5 67.8 -256.2 33.9 -259.9 0L0 0Z" fill="#003044"></path><path d="M0 222.8C-26.5 212.4 -53 202 -79.5 191.9C-106 181.9 -132.6 172.2 -154.9 154.9C-177.1 137.5 -195.2 112.3 -205.8 85.2C-216.4 58.1 -219.6 29.1 -222.7 0L0 0Z" fill="#00465a"></path><path d="M0 185.6C-22.1 177 -44.2 168.3 -66.3 159.9C-88.4 151.6 -110.5 143.5 -129 129C-147.6 114.6 -162.7 93.6 -171.5 71C-180.3 48.5 -183 24.2 -185.6 0L0 0Z" fill="#005d6f"></path><path d="M0 148.5C-17.7 141.6 -35.3 134.6 -53 128C-70.7 121.3 -88.4 114.8 -103.2 103.2C-118.1 91.6 -130.1 74.9 -137.2 56.8C-144.3 38.8 -146.4 19.4 -148.5 0L0 0Z" fill="#00757f"></path><path d="M0 111.4C-13.2 106.2 -26.5 101 -39.8 96C-53 91 -66.3 86.1 -77.4 77.4C-88.6 68.7 -97.6 56.2 -102.9 42.6C-108.2 29.1 -109.8 14.5 -111.4 0L0 0Z" fill="#008e8c"></path><path d="M0 74.3C-8.8 70.8 -17.7 67.3 -26.5 64C-35.3 60.6 -44.2 57.4 -51.6 51.6C-59 45.8 -65.1 37.4 -68.6 28.4C-72.1 19.4 -73.2 9.7 -74.2 0L0 0Z" fill="#00a795"></path><path d="M0 37.1C-4.4 35.4 -8.8 33.7 -13.3 32C-17.7 30.3 -22.1 28.7 -25.8 25.8C-29.5 22.9 -32.5 18.7 -34.3 14.2C-36.1 9.7 -36.6 4.8 -37.1 0L0 0Z" fill="#00b398"></path></g><g transform="translate(0, 540)"><path d="M0 -297C40.6 -294.3 81.2 -291.6 113.7 -274.4C146.1 -257.2 170.4 -225.5 197.3 -197.3C224.2 -169.1 253.6 -144.4 270.7 -112.1C287.7 -79.8 292.4 -39.9 297 0L0 0Z" fill="#021c2c"></path><path d="M0 -259.9C35.5 -257.5 71.1 -255.1 99.4 -240.1C127.8 -225 149.1 -197.3 172.6 -172.6C196.1 -148 221.9 -126.4 236.9 -98.1C251.8 -69.9 255.8 -34.9 259.9 0L0 0Z" fill="#003044"></path><path d="M0 -222.7C30.5 -220.7 60.9 -218.7 85.2 -205.8C109.6 -192.9 127.8 -169.1 148 -148C168.1 -126.8 190.2 -108.3 203 -84.1C215.8 -59.9 219.3 -29.9 222.8 0L0 0Z" fill="#00465a"></path><path d="M0 -185.6C25.4 -183.9 50.8 -182.2 71 -171.5C91.3 -160.7 106.5 -140.9 123.3 -123.3C140.1 -105.7 158.5 -90.3 169.2 -70.1C179.8 -49.9 182.7 -24.9 185.6 0L0 0Z" fill="#005d6f"></path><path d="M0 -148.5C20.3 -147.1 40.6 -145.8 56.8 -137.2C73.1 -128.6 85.2 -112.7 98.6 -98.6C112.1 -84.5 126.8 -72.2 135.3 -56.1C143.9 -39.9 146.2 -20 148.5 0L0 0Z" fill="#00757f"></path><path d="M0 -111.4C15.2 -110.4 30.5 -109.3 42.6 -102.9C54.8 -96.4 63.9 -84.6 74 -74C84.1 -63.4 95.1 -54.2 101.5 -42C107.9 -29.9 109.6 -15 111.4 0L0 0Z" fill="#008e8c"></path><path d="M0 -74.2C10.2 -73.6 20.3 -72.9 28.4 -68.6C36.5 -64.3 42.6 -56.4 49.3 -49.3C56 -42.3 63.4 -36.1 67.7 -28C71.9 -20 73.1 -10 74.3 0L0 0Z" fill="#00a795"></path><path d="M0 -37.1C5.1 -36.8 10.2 -36.4 14.2 -34.3C18.3 -32.1 21.3 -28.2 24.7 -24.7C28 -21.1 31.7 -18.1 33.8 -14C36 -10 36.5 -5 37.1 0L0 0Z" fill="#00b398"></path></g></svg>